# File created by Blade
# Date/Time:  Wed Jan 21 14:43:55 2015
# Frame Rate: 120.000 fps
#------------------------------------------------------
:FULLY-SPECIFIED
:DEGREES
569
root 17.402878 35.430850 -20.124755 -173.461717 -8.252295 176.590390
Spine -6.158118 -4.526521 24.088408
Head -0.769721 0.993003 5.051125
LeftShoulder -11.413359 -8.985687 5.745355
LeftArm -79.031654 78.766038 -132.696479
LeftForeArm 31.149703 -0.000000 90.978518
LeftHand 7.160680 -0.000000 25.362260
LeftHandThumb1 -26.253704 0.000000 33.147579
RightShoulder -12.159336 -30.524502 -2.953505
RightArm 19.836716 -46.503844 29.861628
RightForeArm -42.215074 -0.000000 116.648849
RightHand 0.354080 -0.000000 -10.917693
RightHandThumb1 -24.326973 -0.000000 -32.862282
LeftUpLeg -0.232220 5.624789 -4.330764
LeftLeg -6.083152 -0.000000 0.000000
LeftFoot -17.376485 25.368346 -10.771264
LeftToeBase 26.771674 -0.000000 -0.000000
RightUpLeg 1.621631 -13.849418 -8.429196
RightLeg -3.227335 -0.000000 0.000000
RightFoot -21.281661 -24.622171 16.318814
RightToeBase 26.146642 -0.000000 -0.000000
570
root 17.373951 35.430440 -20.106552 -173.472281 -8.354910 176.490393
Spine -6.120087 -4.745832 24.623840
Head -0.792888 1.115669 5.241833
LeftShoulder -11.433864 -9.017321 5.742292
LeftArm -79.210652 78.695688 -133.021172
LeftForeArm 31.240047 -0.000000 90.886573
LeftHand 7.047256 -0.000000 25.419672
LeftHandThumb1 -26.253704 0.000000 33.147579
RightShoulder -12.103938 -30.558239 -3.003752
RightArm 19.885179 -46.381824 29.732293
RightForeArm -42.470425 -0.000000 116.949279
RightHand 0.134177 -0.000000 -10.831083
RightHandThumb1 -24.326973 -0.000000 -32.862282
LeftUpLeg -0.265655 5.574308 -4.468246
LeftLeg -6.023322 -0.000000 0.000000
LeftFoot -17.366388 25.298032 -10.804610
LeftToeBase 26.801648 -0.000000 -0.000000
RightUpLeg 1.671492 -13.938508 -8.579715
RightLeg -3.253646 -0.000000 0.000000
RightFoot -21.277020 -24.638768 16.307362
RightToeBase 26.210778 -0.000000 -0.000000
571
root 17.348383 35.429280 -20.092505 -173.493343 -8.447984 176.412016
Spine -6.062743 -4.945352 25.158222
Head -0.845419 1.384291 5.466681
LeftShoulder -11.477709 -9.022011 5.768219
LeftArm -79.281653 78.662242 -133.263338
LeftForeArm 31.345656 -0.000000 90.779029
LeftHand 7.073840 -0.000000 25.461105
LeftHandThumb1 -26.253704 0.000000 33.147579
RightShoulder -12.070957 -30.511151 -3.047304
RightArm 19.847417 -46.314093 29.661253
RightForeArm -42.687969 -0.000000 117.253094
RightHand -0.054072 -0.000000 -10.711020
RightHandThumb1 -24.326973 -0.000000 -32.862282
LeftUpLeg -0.272325 5.520717 -4.575764
LeftLeg -5.984757 -0.000000 0.000000
LeftFoot -17.355096 25.226465 -10.799920
LeftToeBase 26.841088 -0.000000 -0.000000
RightUpLeg 1.750102 -13.981447 -8.714178
RightLeg -3.306687 -0.000000 0.000000
RightFoot -21.245929 -24.656115 16.271120
RightToeBase 26.253841 -0.000000 -0.000000
572
root 17.320356 35.427420 -20.075707 -173.517848 -8.555044 176.323090
Spine -6.000865 -5.145259 25.668505
Head -0.912138 1.560498 5.733960
LeftShoulder -11.479279 -9.011014 5.806564
LeftArm -79.247437 78.611587 -133.434325
LeftForeArm 31.401821 0.000000 90.613068
LeftHand 7.326603 -0.000000 25.717239
LeftHandThumb1 -26.253704 0.000000 33.147579
RightShoulder -11.992502 -30.503247 -3.113477
RightArm 19.729838 -46.104905 29.695744
RightForeArm -42.601811 0.000000 117.577393
RightHand -0.038547 -0.000000 -10.312483
RightHandThumb1 -24.326973 -0.000000 -32.862282
LeftUpLeg -0.279827 5.415411 -4.694358
LeftLeg -5.939961 -0.000000 0.000000
LeftFoot -17.332526 25.190750 -10.795108
LeftToeBase 26.813834 -0.000000 -0.000000
RightUpLeg 1.821964 -14.069412 -8.857389
RightLeg -3.345153 -0.000000 0.000000
RightFoot -21.232331 -24.654909 16.277235
RightToeBase 26.207862 -0.000000 -0.000000
573
root 17.292282 35.425591 -20.061159 -173.536568 -8.670761 176.237633
Spine -5.954875 -5.321410 26.184469
Head -0.967275 1.721613 6.009546
LeftShoulder -11.470639 -9.016020 5.847211
LeftArm -79.386906 78.550106 -133.773553
LeftForeArm 31.507857 -0.000000 90.483445
LeftHand 7.224751 -0.000000 25.866014
LeftHandThumb1 -26.253704 0.000000 33.147579
RightShoulder -11.991992 -30.504222 -3.120383
RightArm 19.781083 -46.164705 29.504818
RightForeArm -43.100585 -0.000000 117.860911
RightHand -0.576927 -0.000000 -10.670008
RightHandThumb1 -24.326973 -0.000000 -32.862282
LeftUpLeg -0.312492 5.364492 -4.810466
LeftLeg -5.854110 -0.000000 0.000000
LeftFoot -17.330680 25.107393 -10.773845
LeftToeBase 26.843079 -0.000000 -0.000000
RightUpLeg 1.899639 -14.164086 -8.994173
RightLeg -3.395331 -0.000000 0.000000
RightFoot -21.220913 -24.677683 16.266588
RightToeBase 26.269534 -0.000000 -0.000000
574
root 17.266090 35.424361 -20.047362 -173.560137 -8.735451 176.146513
Spine -5.869136 -5.484080 26.673864
Head -1.050055 1.945656 6.297188
LeftShoulder -11.488719 -8.935729 5.844491
LeftArm -79.093813 78.531974 -133.618015
LeftForeArm 31.600590 -0.000000 90.381319
LeftHand 7.357454 -0.000000 25.894934
LeftHandThumb1 -26.253704 0.000000 33.147579
RightShoulder -12.052933 -30.484039 -3.074711
RightArm 19.936498 -46.029921 29.196376
RightForeArm -43.137765 -0.000000 118.120940
RightHand -0.505089 -0.000000 -10.507812
RightHandThumb1 -24.326973 -0.000000 -32.862282
LeftUpLeg -0.304591 5.307198 -4.934762
LeftLeg -5.833823 -0.000000 0.000000
LeftFoot -17.305946 25.083518 -10.815211
LeftToeBase 26.714448 -0.000000 -0.000000
RightUpLeg 1.960271 -14.205804 -9.136683
RightLeg -3.427839 -0.000000 0.000000
RightFoot -21.215629 -24.708042 16.224046
RightToeBase 26.365486 -0.000000 -0.000000
